<?xml version="1.0" encoding="utf-8"?>
<!-- Generator: Adobe Illustrator 22.1.0, SVG Export Plug-In . SVG Version: 6.00 Build 0)  -->
<svg version="1.1" id="Layer_2_copy_4" xmlns="http://www.w3.org/2000/svg" xmlns:xlink="http://www.w3.org/1999/xlink" x="0px"
	 y="0px" viewBox="0 0 4096 4096" style="enable-background:new 0 0 4096 4096;" xml:space="preserve">
<style type="text/css">
	.st0{fill:none;}
	.st1{fill:#00FFFF;}
	.st2{fill:#F15A24;}
	.st3{fill:#333333;}
</style>
<g>
	<path class="st0" d="M1841.5,454.4C1841.5,454.4,1841.5,454.5,1841.5,454.4C1841.5,454.5,1841.5,454.4,1841.5,454.4L1841.5,454.4z"
		/>
	<path class="st0" d="M1787.8,1175l-8.1-14.4l-14.2,22.7c-13.3,21.3-26.6,42.6-39.9,63.9l8.1,14.4c16.3-26.1,32.6-52.2,48.9-78.4
		L1787.8,1175z"/>
	<path class="st0" d="M1884.1,1183.2l5.1-8.2l-8.1-14.4l-14.2,22.7c-10.1,16.1-20.2,32.3-30.2,48.5l8.1,14.4
		C1857.9,1225.1,1871,1204.2,1884.1,1183.2z"/>
	<polygon class="st0" points="1877,1357.5 1877,1357.5 1847.1,1307.6 	"/>
	<path class="st0" d="M1785.9,521.1C1785.9,521.1,1785.9,521.1,1785.9,521.1C1785.9,521.1,1785.9,521.1,1785.9,521.1L1785.9,521.1z"
		/>
	<path class="st0" d="M1603.6,2598.8l-7.8,13.3l-3.9,6.7l-3.8,6.8c-2.1,3.9-4.1,7.8-6,11.8c-35.7,57.9-71.2,116-106.5,174.1l-3.6,6
		c1.7,4.8,3.6,9.5,5.6,14.2l8-14.5c30.4-55.4,60.7-110.9,90.7-166.5c-0.4,1-0.8,2-1.2,3c-7.5,19.3-12.4,39.7-14.5,60.3
		c-2.1,20.7-1.4,41.6,2,62.1c3.4,20.5,9.6,40.5,18.2,59.5c8.6,18.9,19.7,36.7,32.9,52.9c13.2,16.1,28.5,30.5,45.4,42.7
		c16.9,12.2,35.5,22.1,55.1,29.3c19.6,7.2,40.1,11.8,60.9,13.6l3.9,0.3c1.3,0.1,2.6,0.2,3.9,0.2c2.6,0.1,5.2,0.3,7.8,0.3l-55.1,0.3
		l123.4,0.4l246.8,0.5l173.8,0.1v0v0l26.1,0l-56.8,0l7.2,0l30.8,0l7.7,0c2.6,0,5.1,0,7.8-0.1c5.2,0,10.5-0.3,15.7-0.7
		c8.7-0.6,17.4-1.8,26-3.4c34.7,0.8,69.5,1.6,104.2,2.3c-3.5,0.4-7,0.8-10.4,1c-5.2,0.4-10.5,0.6-15.7,0.7c-2.6,0.1-5.2,0.1-7.8,0.1
		l-7.7,0l-30.8,0l-70.1,0l48.1,0l123.4-0.1l30.8,0l7.7,0c2.6,0,5.1,0,7.8-0.1c1.5,0,3.1,0,4.6-0.1l80.2,1.5l103.1,1.7l103.1,1.6
		l103.1,1.4l103.1,1.3l103.1,1.2l24.8,0.3l-0.7-1.4l95.7,1.1l24.8,0.3l-0.6-1.2l-25.8-0.3l-94.8-1.2l-10.4-19.6
		c-0.8-1.5-1.6-3.1-2.5-4.6l4.5-0.1l103.1-1.6l-23.6-1.1l-77.8,1.1l-7,0.1l-96.1,1.5l-103.1,1.7l-103.1,1.8l-103.1,2l-103.1,2.2
		c-12.3,0.3-24.6,0.6-36.9,0.9c3-0.9,6-1.8,8.9-2.8l-91.8,1.9c-5.6,0.1-11.3,0.3-16.9,0.4c-43.8,1-87.7,2-131.5,3.2
		c7.7-1.9,15.2-4.1,22.7-6.7c19.8-7,38.6-16.6,55.9-28.6c17.2-12,32.8-26.3,46.3-42.3c27-32.1,45.5-71.1,53.1-112.3
		c1.6-8.7,2.7-17.5,3.3-26.4h100.2c0.8-12,0.8-24.2-0.3-36.2c-1.8-20.9-6.4-41.4-13.7-61c-3.6-9.8-7.9-19.4-12.7-28.6
		c-1.2-2.3-2.5-4.6-3.7-6.9c-1.3-2.3-2.6-4.5-3.9-6.7l-7.8-13.3l-31-53.3l-124.2-213.2l-98-168.4h101.4L2329,1967.4h-101.4
		l-35.1-60.2c-1.9-3.3-3.9-6.6-6-9.9c-17.5-32.4-35.1-64.8-52.8-97.2c-2.1,0.7-4.2,1.4-6.2,2.2c17.1,28,34.3,55.9,51.5,83.8
		c-7.1-10-14.9-19.5-23.5-28.3c-14.4-14.8-30.8-27.6-48.5-38c-2.8-1.6-5.6-3.1-8.4-4.6c-2.2,1.1-4.3,2.3-6.4,3.5
		c-17.9,10.2-34.3,22.9-48.8,37.5c-0.3,0.3-0.6,0.6-0.9,0.9c-1.2,1.2-2.4,2.4-3.5,3.7c-0.5,0.5-1,1-1.4,1.5c-1.4,1.5-2.7,3-4.1,4.5
		c-0.3,0.4-0.6,0.7-0.9,1.1c-1.5,1.7-2.9,3.4-4.3,5.1c-0.2,0.2-0.4,0.4-0.5,0.6c-1.5,1.8-3,3.7-4.4,5.6c-0.1,0.1-0.2,0.2-0.3,0.3
		c-1.5,2-3,3.9-4.4,6c0,0.1-0.1,0.1-0.1,0.2c-1.4,2-2.9,4.1-4.3,6.2c0,0.1-0.1,0.1-0.1,0.2c-1.4,2.1-2.7,4.2-4.1,6.3
		c0,0.1-0.1,0.1-0.1,0.2c-1.3,2.1-2.6,4.3-3.9,6.5l-36,62.3h101.4l-87.5,151.3l-27,46.6h-101.4l-96.8,166.9l-3.2,5.4h1.2h101.4
		l-119.4,205.3h-101.4h-1.2l-1.5,2.6L1603.6,2598.8z"/>
	<path class="st0" d="M1957.5,678c-9.7-18.6-19.4-37.2-29.1-55.8C1938.1,640.8,1947.8,659.4,1957.5,678z"/>
	<path class="st0" d="M1829.2,1432.2l-27.1-48.5l-11.4-20.4l-8.9-15.8c-5.2,8.4-10.4,16.8-15.6,25.2c-12.3,19.9-24.6,39.7-37,59.6
		h44H1829.2z"/>
	<path class="st0" d="M1662.9,1183.2l5.1-8.2l-8.1-14.4l-14.2,22.7c-51.8,82.9-103.4,165.9-154.8,249h17.1
		C1559.6,1349.1,1611.2,1266.1,1662.9,1183.2z"/>
	<path class="st1" d="M2406.6,2976.2l7.7,0c2.6,0,5.1,0,7.8-0.1c5.2,0,10.5-0.3,15.7-0.7c3.5-0.3,7-0.6,10.4-1
		c-34.7-0.7-69.5-1.5-104.2-2.3c-8.6,1.6-17.3,2.7-26,3.4c-5.2,0.4-10.5,0.6-15.7,0.7c-2.6,0.1-5.2,0.1-7.8,0.1l-7.7,0l-30.8,0
		l-7.2,0l56.8,0l70.1,0L2406.6,2976.2z"/>
	<path class="st1" d="M2186.5,1897.2c2.1,3.3,4.1,6.5,6,9.9l35.1,60.2H2329l115.2,197.9h-101.4l98,168.4l124.2,213.2l31,53.3
		l7.8,13.3c1.3,2.2,2.6,4.4,3.9,6.7c1.3,2.3,2.6,4.5,3.7,6.9c4.8,9.2,9.1,18.8,12.7,28.6c7.3,19.6,11.9,40.2,13.7,61
		c1.1,12,1.1,24.1,0.3,36.2h-100.2c-0.6,8.8-1.7,17.6-3.3,26.4c-7.5,41.2-26.1,80.3-53.1,112.3c-13.5,16-29.1,30.3-46.3,42.3
		c-17.2,12-36.1,21.7-55.9,28.6c-7.4,2.6-15,4.9-22.7,6.7c43.8-1.2,87.7-2.2,131.5-3.2c3.7-1.1,7.3-2.3,10.9-3.6
		c19.8-7,38.6-16.6,55.8-28.6c17.2-12,32.8-26.3,46.3-42.3c27-32.1,45.5-71.1,53.1-112.3c1.6-8.7,2.7-17.5,3.3-26.4h100.2
		c0.8-12,0.8-24.2-0.3-36.2c-1.8-20.9-6.4-41.4-13.7-61c-3.6-9.8-7.9-19.4-12.7-28.6c-1.2-2.3-2.5-4.6-3.7-6.9
		c-1.3-2.3-2.6-4.5-3.9-6.7l-7.8-13.3l-31-53.3l-124.2-213.2l-98-168.4h101.4l-115.2-197.9h-101.4l-35.1-60.2
		c-1.9-3.3-3.9-6.6-6-9.9c-19.1-35.4-38.4-70.8-57.7-106.1c-3-0.5-6-0.9-9-1.3c19.7,32.1,39.3,64.2,59.1,96.3
		c-7.1-10-14.9-19.5-23.5-28.3c-14.4-14.8-30.8-27.6-48.5-38c-17.8-10.4-37-18.4-56.8-23.7c-3.8-1-7.7-1.9-11.5-2.8
		c-8.3,1.8-16.5,4.1-24.6,6.8C2151.4,1832.4,2169,1864.8,2186.5,1897.2z"/>
	<path class="st1" d="M1835.3,1287.7l11.9,19.9c5.5-9.3,11-18.7,16.5-28l-3.5-6.3l-15.3-27.2c-5.9,9.4-11.7,18.8-17.6,28.2
		L1835.3,1287.7z"/>
	<path class="st1" d="M635.8,2542.9h101.4h1.2l118.5-205.3h-1.2H754.3l99.5-172.3h101.4l114.3-197.9H968l309-535.2h-17.1h-101.4
		l563.9-976.6c-18.8-36.6-37.6-73.3-56.2-110l-627.4,1086.7h118.5l-309,535.2h101.4l-114.3,197.9H734l-99.5,172.3h102.6
		l-118.5,205.3H516L21.5,3399.5l203,351.5h0.4c19.6-34.8,39.4-69.5,59.2-104.2l-142.8-247.4L635.8,2542.9z"/>
	<path class="st1" d="M1785.9,345.5l0.3-0.5h-102.6l-0.3,0.5c20.2,34.2,40.3,68.5,60.4,102.8l50.9-88.2
		C1791.6,355.3,1788.7,350.4,1785.9,345.5z"/>
	<path class="st1" d="M3138.5,2958.1l-4.5,0.1c0.8,1.5,1.6,3.1,2.5,4.6l10.4,19.6l94.8,1.2l25.8,0.3l-11.2-21.1
		c-1.1-2.1-2.3-4.3-3.4-6.4l-11.2,0.2L3138.5,2958.1z"/>
	<path class="st1" d="M394.7,3662.8c-16.8,29.4-33.5,58.8-50.1,88.2h0c17.8-27.5,35.6-54.9,53.4-82.5L394.7,3662.8z"/>
	<path class="st1" d="M224.9,3751h119.3l-56.3-97.5C267,3686.1,246,3718.6,224.9,3751z"/>
	<path class="st1" d="M2107,1819.8c17.8,10.4,34.2,23.2,48.5,38c8.6,8.8,16.4,18.3,23.5,28.3c-17.2-27.9-34.4-55.8-51.5-83.8
		c-9.9,3.6-19.6,7.9-28.9,12.9C2101.4,1816.6,2104.2,1818.2,2107,1819.8z"/>
	<path class="st2" d="M2927.4,2165.3h-18.3h-32.2c29.2,53,58.5,106,87.8,158.9c79.3,143.1,159,286.1,239.2,428.8h1.2h39.5
		c-80.2-150.1-161-299.9-242.1-449.5C2977.6,2257.4,2952.5,2211.3,2927.4,2165.3z"/>
	<path class="st2" d="M2768.1,1967.4h32.8h18.3c-58.5-106.8-117.3-213.5-176.2-320.1c-39.7-71.8-79.5-143.4-119.4-215.1h-17.1H2477
		c42.5,78.7,85.1,157.4,127.8,236C2659.1,1768,2713.5,1867.7,2768.1,1967.4z"/>
	<path class="st2" d="M1841.5,454.4C1841.5,454.4,1841.5,454.5,1841.5,454.4c28.8,56.1,57.8,111.9,86.9,167.8
		c9.7,18.6,19.4,37.2,29.1,55.8c57.7,110.6,116,220.8,174.5,331c75,141.3,150.6,282.3,226.5,423.1h45.4h1.2
		c-81.5-146.3-163.4-292.3-245.9-438c-61.5-108.5-123.1-217-185.3-325.1c-42.6-74-85.3-148-128.3-221.7L1841.5,454.4z"/>
	<path class="st2" d="M3028.8,2165.3c-36-66-72-132-108.2-197.9h-51.1c36.2,66,72.5,132,108.8,197.9H3028.8z"/>
	<path class="st2" d="M3252.8,2956.4c-36-67.9-72.1-135.7-108.3-203.4H3125h-21.2c38,67.6,76,135.1,114.2,202.5l23.6,1.1
		L3252.8,2956.4z"/>
	<path class="st2" d="M1452.7,1967.4c25.1-41.5,50.1-83.1,75.2-124.7c82.2-136.6,164-273.4,245.5-410.5h-44
		c-79.9,129.1-159.5,258.4-238.7,387.9c-30,49.1-60,98.1-89.9,147.3h33.7H1452.7z"/>
	<path class="st2" d="M546.3,3436.2c66.8-105.4,133.2-211.1,199.4-316.8c119.8-191.7,238.7-383.9,356.8-576.5h-17.1h-32.6
		c-111.8,186.5-223,373.3-333.3,560.7c-63.2,107.6-126.3,215.2-188.9,323.2c-45.5,78.6-90.9,157.2-136,236.1l3.3,5.7
		C447.7,3591.3,497.1,3513.8,546.3,3436.2z"/>
	<path class="st2" d="M1228.1,2337.6c35-57.4,69.9-114.8,104.8-172.3h-18.3h-34.1c-34.8,57.4-69.5,114.8-104.2,172.3h34.7H1228.1z"
		/>
	<path class="st2" d="M1653.6,1432.2h18.3c21.6-36.4,43.2-72.8,64.7-109.2c5.4-9.1,10.8-18.3,16.2-27.4
		c14.5-24.5,28.9-48.9,43.3-73.4l31.1,52.2c5.9-9.4,11.7-18.8,17.6-28.2l-8.1-14.4c-3,4.8-6,9.6-9,14.4l-35.1-62.6l-4.8-8.5
		l-5.1,8.2c-16.3,26.1-32.6,52.2-48.9,78.4c-5.8,9.3-11.5,18.5-17.3,27.8c-29.6,47.6-59.1,95.2-88.6,142.8H1653.6z"/>
	<path class="st2" d="M1554.1,1967.4h-52c-40.2,65.9-80.3,131.9-120.3,197.9h52.4C1474.3,2099.4,1514.2,2033.4,1554.1,1967.4z"/>
	<path class="st2" d="M1205.1,2542.9c12.3-20.1,24.6-40.1,36.9-60.2c29.6-48.3,59.1-96.7,88.6-145.1h-1.2h-50.6
		c-24.6,40.9-49.3,81.7-73.9,122.6c-16.6,27.5-33.1,55.1-49.6,82.6h48.5H1205.1z"/>
	<polygon class="st2" points="3348.3,1967.4 3039.4,1432.2 2937.9,1432.2 3246.9,1967.4 	"/>
	<path class="st2" d="M1782.8,2974.7c-1.3-0.1-2.6-0.1-3.9-0.2l-3.9-0.3c-20.8-1.8-41.3-6.4-60.9-13.6
		c-19.6-7.2-38.2-17.1-55.1-29.3c-16.9-12.2-32.2-26.6-45.4-42.7c-13.2-16.1-24.2-33.9-32.9-52.9c-8.6-18.9-14.7-39-18.2-59.5
		c-3.4-20.5-4.1-41.4-2-62.1c2.1-20.7,7-41,14.5-60.3c0.4-1,0.8-2,1.2-3c-30.1,55.6-60.4,111.1-90.7,166.5l-8,14.5
		c0.6,1.3,1.1,2.6,1.7,4c8.6,18.9,19.7,36.7,32.9,52.9c13.2,16.1,28.5,30.5,45.4,42.7c16.9,12.2,35.5,22.1,55.1,29.3
		c19.6,7.2,40.1,11.8,60.9,13.6l3.9,0.3c1.3,0.1,2.6,0.2,3.9,0.2c2.6,0.1,5.2,0.3,7.8,0.3c5.2,0.1,10.4,0.1,15.5,0.1l30.8,0.1
		l55.1-0.3C1788,2975,1785.4,2974.8,1782.8,2974.7z"/>
	<polygon class="st2" points="2920.8,1432.2 2293.2,345 2191.7,345 2819.4,1432.2 	"/>
	<polygon class="st2" points="3564,2165.3 3449.8,1967.4 3348.3,1967.4 3462.6,2165.3 	"/>
	<path class="st2" d="M3700.5,2753h-100.2l370.9,642.4c34.4,0.9,68.7,1.8,103.1,2.9L3701.7,2753h100.2l-339.3-587.7h-101.4
		L3700.5,2753z"/>
	<polygon class="st2" points="1855.5,2165.3 1754.1,2165.3 1657.3,2332.2 1654.2,2337.6 1755.6,2337.6 1758.7,2332.2 	"/>
	<path class="st2" d="M1166.2,3210.5l54.7-98.2l27.3-49.1l27.2-49.2l27.2-49.2l27.2-49.2l36.5-66.3l17.7-32.2
		c30.4-55.4,60.7-110.9,90.7-166.5c-0.4,1-0.8,2-1.2,3c-7.5,19.3-12.4,39.7-14.5,60.3c-2.1,20.7-1.4,41.6,2,62.1
		c2.3,14.1,6,27.9,10.8,41.4l3.6-6c35.3-58.1,70.8-116.2,106.5-174.1c1.9-4,3.9-7.9,6-11.8l3.8-6.8l3.9-6.7l7.8-13.3l31-53.3
		l1.5-2.6h-101.4l-1.5,2.6l-31,53.3l-7.8,13.3l-3.9,6.7l-3.8,6.8c-2.1,3.9-4.1,7.8-6,11.8c-35.7,57.9-71.2,116-106.5,174.1
		l-14.6,24.2l-43.6,72l-29.1,48.1l-29,48.2l-29,48.2l-28.9,48.2l-57.7,96.5l-57.6,96.6l-51.7,87.2l-5.6,9.5l-14.6,24.6l28.9,0.3
		l72.5-0.3l14.6-24.6l5.5-9.3c-21.3,0.2-42.7,0.4-64,0.7l0.7-1.2l40.2-71.5L1166.2,3210.5z"/>
	<path class="st2" d="M2010,1898.6c0-0.1,0.1-0.1,0.1-0.2c1.3-2.1,2.7-4.3,4.1-6.3c0-0.1,0.1-0.1,0.1-0.2c1.4-2.1,2.8-4.2,4.3-6.2
		c0-0.1,0.1-0.1,0.1-0.2c1.4-2,2.9-4,4.4-6c0.1-0.1,0.2-0.2,0.3-0.3c1.4-1.9,2.9-3.8,4.4-5.6c0.2-0.2,0.4-0.4,0.5-0.6
		c1.4-1.7,2.9-3.4,4.3-5.1c0.3-0.4,0.6-0.7,0.9-1.1c1.3-1.5,2.7-3.1,4.1-4.5c0.5-0.5,0.9-1,1.4-1.5c1.2-1.2,2.3-2.5,3.5-3.7
		c0.3-0.3,0.6-0.6,0.9-0.9c14.5-14.6,30.9-27.2,48.8-37.5c2.1-1.2,4.3-2.4,6.4-3.5c9.3-5,19-9.3,28.9-12.9c2.1-0.8,4.1-1.5,6.2-2.2
		c8.1-2.7,16.3-5,24.6-6.8c-10.2-2.2-20.5-3.7-30.8-4.6c-2.9-0.2-5.8-0.4-8.7-0.6c-3.3-0.2-6.7-0.3-10-0.3
		c-20.6-0.1-41.2,2.4-61.1,7.6c-19.9,5.2-39.2,13-57,23.2c-17.9,10.2-34.3,22.9-48.8,37.5c-0.3,0.3-0.6,0.6-0.9,0.9
		c-1.2,1.2-2.4,2.4-3.5,3.7c-0.5,0.5-1,1-1.4,1.5c-1.4,1.5-2.7,3-4.1,4.5c-0.3,0.4-0.6,0.7-0.9,1.1c-1.5,1.7-2.9,3.4-4.3,5.1
		c-0.2,0.2-0.4,0.4-0.5,0.6c-1.5,1.8-3,3.7-4.4,5.6c-0.1,0.1-0.2,0.2-0.3,0.3c-1.5,2-3,3.9-4.4,6c0,0.1-0.1,0.1-0.1,0.2
		c-1.4,2-2.9,4.1-4.3,6.2c0,0.1-0.1,0.1-0.1,0.2c-1.4,2.1-2.7,4.2-4.1,6.3c0,0.1-0.1,0.1-0.1,0.2c-1.3,2.1-2.6,4.3-3.9,6.5l-36,62.3
		h101.4l36-62.3C2007.4,1902.9,2008.7,1900.7,2010,1898.6z"/>
	<polygon class="st2" points="1984,2118.7 2071.5,1967.4 1970.1,1967.4 1882.6,2118.7 1855.5,2165.3 1956.9,2165.3 	"/>
	<polygon class="st2" points="1858.2,2337.6 1756.8,2337.6 1637.4,2542.9 1738.8,2542.9 	"/>
	<path class="st2" d="M4074.3,3398.3c-34.2,1.1-68.4,2-102.6,2.9l-202,349.8h101.4l203.4-352.3L4074.3,3398.3z"/>
	<path class="st2" d="M2211.7,1723.6c-33.1-60.2-66.3-120.3-99.6-180.4l-50-90.1l-11.7-21h-17.1h-10.1l19.4,32.3l53.2,88.2
		c35.5,58.8,71.1,117.5,106.8,176.2c12.4,20.3,24.8,40.6,37.2,60.9c3,0.4,6,0.8,9,1.3C2236.3,1768.6,2224,1746.1,2211.7,1723.6z"/>
	<path class="st2" d="M1877,1357.5c2.1-3.4,4.2-6.8,6.3-10.2l8.9,15.8l11.4,20.4l27.1,48.5h18.3l-38.5-69l-46.8-83.6
		c-5.5,9.3-11,18.7-16.5,28L1877,1357.5z"/>
	<path class="st3" d="M3973.1,3398.7l-0.2-0.4c-40.4,1.2-80.8,2.3-121.2,3.3c-22.7,0.6-45.4,1.1-68.1,1.7l-94.7,2.1l-94.7,1.9
		c-126.3,2.4-252.6,4.4-378.9,6c-252.6,3.3-505.2,5.3-757.8,6.5c-92.7,0.4-185.3,0.7-278,0.8v0.1v0c-4,0-8,0-12,0
		c-35.5,0-71,0-106.5,0c-87,0-174-0.2-261.1-0.5c-252.6-0.8-505.2-2.4-757.8-5.4l-28.9-0.3l14.6-24.6l5.6-9.5l51.7-87.2l57.6-96.6
		l57.7-96.5l28.9-48.2l29-48.2l29-48.2l29.1-48.1l43.6-72l14.6-24.2c35.3-58.1,70.8-116.2,106.5-174.1c1.9-4,3.9-7.9,6-11.8l3.8-6.8
		l3.9-6.7l7.8-13.3l31-53.3l1.5-2.6h101.4h1.2l119.4-205.3h-1.2h-101.4l3.2-5.4l96.8-166.9h101.4l27-46.6l87.5-151.3h-101.4l36-62.3
		c1.3-2.2,2.6-4.4,3.9-6.5c0-0.1,0.1-0.1,0.1-0.2c1.3-2.1,2.7-4.3,4.1-6.3c0-0.1,0.1-0.1,0.1-0.2c1.4-2.1,2.8-4.2,4.3-6.2
		c0-0.1,0.1-0.1,0.1-0.2c1.4-2,2.9-4,4.4-6c0.1-0.1,0.2-0.2,0.3-0.3c1.4-1.9,2.9-3.8,4.4-5.6c0.2-0.2,0.4-0.4,0.5-0.6
		c1.4-1.7,2.9-3.4,4.3-5.1c0.3-0.4,0.6-0.7,0.9-1.1c1.3-1.5,2.7-3.1,4.1-4.5c0.5-0.5,0.9-1,1.4-1.5c1.2-1.2,2.3-2.5,3.5-3.7
		c0.3-0.3,0.6-0.6,0.9-0.9c14.5-14.6,30.9-27.2,48.8-37.5c17.9-10.2,37.1-18,57-23.2c19.9-5.2,40.5-7.8,61.1-7.6
		c3.3,0,6.7,0.1,10,0.3c2.9,0.1,5.8,0.3,8.7,0.6c10.4,0.9,20.7,2.4,30.8,4.6c3.9,0.8,7.7,1.7,11.5,2.8c19.9,5.4,39.1,13.3,56.8,23.7
		c17.8,10.4,34.2,23.2,48.5,38c8.6,8.8,16.4,18.3,23.5,28.3c-19.8-32-39.5-64.1-59.1-96.3c-12.4-20.3-24.8-40.6-37.2-60.9
		c-35.7-58.7-71.3-117.4-106.8-176.2l-53.2-88.2l-19.4-32.3h10.1h17.1l11.7,21l50,90.1c33.3,60.1,66.5,120.2,99.6,180.4
		c12.3,22.5,24.6,45,36.9,67.5c19.3,35.3,38.5,70.7,57.7,106.1c2.1,3.3,4.1,6.5,6,9.9l35.1,60.2h101.4l115.2,197.9h-101.4l98,168.4
		l124.2,213.2l31,53.3l7.8,13.3c1.3,2.2,2.6,4.4,3.9,6.7c1.3,2.3,2.6,4.5,3.7,6.9c4.8,9.2,9.1,18.8,12.7,28.6
		c7.3,19.6,11.9,40.2,13.7,61c1.1,12,1.1,24.1,0.3,36.2h-100.2c-0.6,8.8-1.7,17.6-3.3,26.4c-7.5,41.2-26.1,80.3-53.1,112.3
		c-13.5,16-29.1,30.3-46.3,42.3c-17.2,12-36.1,21.7-55.8,28.6c-3.6,1.3-7.3,2.5-10.9,3.6c5.6-0.1,11.3-0.3,16.9-0.4l91.8-1.9
		c-3,1-5.9,1.9-8.9,2.8c12.3-0.3,24.6-0.6,36.9-0.9l103.1-2.2l103.1-2l103.1-1.8l103.1-1.7l96.1-1.5l7-0.1l77.8-1.1
		c-38.2-67.4-76.3-134.9-114.2-202.5h21.2h19.5c36.2,67.7,72.3,135.5,108.3,203.4c1.1,2.1,2.3,4.3,3.4,6.4l11.2,21.1l0.6,1.2
		l-24.8-0.3l-95.7-1.1l0.7,1.4l-24.8-0.3l-103.1-1.2l-103.1-1.3l-103.1-1.4l-103.1-1.6l-103.1-1.7l-80.2-1.5c-1.5,0-3.1,0.1-4.6,0.1
		c-2.6,0.1-5.2,0.1-7.8,0.1l-7.7,0l-30.8,0l-123.4,0.1l-48.1,0l-26.1,0v0v0l-173.8-0.1l-246.8-0.5l-123.4-0.4l-30.8-0.1
		c-5.1,0-10.3,0-15.5-0.1c-2.6,0-5.2-0.2-7.8-0.3c-1.3-0.1-2.6-0.1-3.9-0.2l-3.9-0.3c-20.8-1.8-41.3-6.4-60.9-13.6
		c-19.6-7.2-38.2-17.1-55.1-29.3c-16.9-12.2-32.2-26.6-45.4-42.7c-13.2-16.1-24.2-33.9-32.9-52.9c-0.6-1.3-1.1-2.6-1.7-4
		c-2-4.7-3.9-9.4-5.6-14.2c-4.8-13.4-8.5-27.3-10.8-41.4c-3.4-20.5-4.1-41.4-2-62.1c2.1-20.7,7-41,14.5-60.3c0.4-1,0.8-2,1.2-3
		c-30.1,55.6-60.4,111.1-90.7,166.5l-17.7,32.2l-36.5,66.3l-27.2,49.2l-27.2,49.2l-27.2,49.2l-27.3,49.1l-54.7,98.2l-54.9,98.1
		l-40.2,71.5c21.3-0.2,42.7-0.4,64-0.6c12.6-0.1,25.3-0.2,37.9-0.3c169-1.4,337.9-2.4,506.9-2.9c126.3-0.4,252.6-0.5,378.9-0.5
		c0.6,0,1.3,0,1.9,0c35.5,0,71,0,106.5,0c4,0,8,0,12,0v0v0.1c92.7,0.1,185.3,0.4,278,0.8c252.6,1.1,505.2,3.1,757.8,6.5
		c126.3,1.7,252.6,3.7,378.9,6l94.7,1.9l94.7,2.1c22.5,0.5,45.1,1.1,67.6,1.7c40.6,1,81.1,2.1,121.7,3.4l-1.7-2.9L3600.3,2753h100.2
		l-339.3-587.7h101.4l-114.3-197.9h-101.4l-309-535.2h-17.1h-101.4L2191.7,345H2072h-184.4h-84.3h-17.1l-0.3,0.5
		c2.9,4.9,5.8,9.8,8.6,14.7l-50.9,88.2l-4.1,7.2c13.2,25.7,26.5,51.4,39.8,77.1l-1.9,3.2l-7.1,12.4c-16-30.9-32-61.8-47.9-92.7
		l-563.9,976.6h101.4h17.1l-309,535.2h101.4l-114.3,197.9H853.7l-99.5,172.3h101.4h1.2l-118.5,205.3h-1.2H635.8l-494.6,856.6
		L284,3646.8l3.9,6.7l56.3,97.5h0.4c16.6-29.4,33.3-58.8,50.1-88.2c45-78.9,90.4-157.5,136-236.1
		c62.6-107.9,125.7-215.6,188.9-323.2c110.3-187.4,221.4-374.2,333.3-560.7h32.6h17.1c-118.2,192.6-237,384.9-356.8,576.5
		c-66.2,105.8-132.6,211.4-199.4,316.8c-49.2,77.6-98.6,155.1-148.3,232.3c-17.7,27.5-35.5,55-53.4,82.5h101h0.4h0h1733.3h100.2
		H3650h119.7l202-349.8L3973.1,3398.7z M3205.2,2753h-1.2c-80.2-142.7-159.9-285.6-239.2-428.8c-29.3-52.9-58.6-105.9-87.8-158.9
		h32.2h18.3c25.1,46,50.2,92.1,75.2,138.2c81.2,149.6,161.9,299.4,242.1,449.5H3205.2z M2920.7,1967.4
		c36.1,65.9,72.2,131.9,108.2,197.9h-50.5c-36.4-65.9-72.6-131.9-108.8-197.9H2920.7z M2506.5,1432.2h17.1
		c39.9,71.6,79.7,143.3,119.4,215.1c58.9,106.6,117.7,213.3,176.2,320.1h-18.3h-32.8c-54.6-99.6-109-199.3-163.3-299.1
		c-42.7-78.6-85.3-157.3-127.8-236H2506.5z M2159.2,994.1c82.5,145.7,164.4,291.8,245.9,438h-1.2h-45.4
		c-75.9-140.8-151.5-281.8-226.5-423.1c-58.4-110.2-116.7-220.5-174.5-331c-9.7-18.6-19.4-37.2-29.1-55.8
		c-29.1-55.8-58.1-111.7-86.9-167.7c0,0,0,0,0,0l0,0l4.1-7.1c43.1,73.8,85.8,147.7,128.3,221.7
		C2036.1,777.2,2097.7,885.6,2159.2,994.1z M1785.9,521.1L1785.9,521.1C1785.9,521.1,1785.9,521.1,1785.9,521.1
		C1785.9,521.1,1785.9,521.1,1785.9,521.1z M1733.8,1261.6l-8.1-14.4c13.3-21.3,26.6-42.6,39.9-63.9l14.2-22.7l8.1,14.4l4.8,8.5
		l35.1,62.6c3-4.8,6-9.6,9-14.4c10.1-16.2,20.1-32.3,30.2-48.5l14.2-22.7l8.1,14.4l-5.1,8.2c-13.1,21-26.2,41.9-39.2,62.9l15.3,27.2
		l3.5,6.3l46.8,83.6l38.5,69h-18.3l-27.1-48.5l-11.4-20.4l-8.9-15.8c-2.1,3.4-4.2,6.8-6.3,10.2l0,0l-29.8-49.9l-11.9-19.9l-8-13.4
		l-31.1-52.2c-14.4,24.5-28.9,48.9-43.3,73.4c-5.4,9.2-10.8,18.3-16.2,27.4c-21.5,36.4-43.1,72.8-64.7,109.2h-18.3h-25.7
		c29.5-47.6,59-95.2,88.6-142.8C1722.3,1280.1,1728,1270.8,1733.8,1261.6z M1645.8,1183.2l14.2-22.7l8.1,14.4l-5.1,8.2
		c-51.8,82.9-103.4,165.9-154.8,249H1491C1542.5,1349.1,1594.1,1266.1,1645.8,1183.2z M1490.6,1820.1
		c79.2-129.5,158.8-258.8,238.7-387.9c12.3-19.9,24.6-39.7,37-59.6c5.2-8.4,10.4-16.8,15.6-25.2l8.9,15.8l11.4,20.4l27.1,48.5h-55.9
		c-81.4,137.1-163.3,273.9-245.5,410.5c-25,41.6-50.1,83.1-75.2,124.7h-18.3h-33.7C1430.6,1918.2,1460.6,1869.2,1490.6,1820.1z
		 M1502.1,1967.4h52c-39.9,66-79.8,132-119.8,197.9h-52.4C1421.9,2099.3,1462,2033.3,1502.1,1967.4z M1280.4,2165.3h34.1h18.3
		c-34.9,57.5-69.8,114.9-104.8,172.3h-17.1h-34.7C1210.9,2280.1,1245.7,2222.7,1280.4,2165.3z M1205.1,2460.2
		c24.6-40.9,49.2-81.8,73.9-122.6h50.6h1.2c-29.5,48.4-59.1,96.7-88.6,145.1c-12.3,20.1-24.6,40.1-36.9,60.2h-1.2h-48.5
		C1172,2515.3,1188.5,2487.7,1205.1,2460.2z"/>
</g>
<g>
</g>
<g>
</g>
<g>
</g>
<g>
</g>
<g>
</g>
<g>
</g>
<g>
</g>
<g>
</g>
<g>
</g>
<g>
</g>
<g>
</g>
<g>
</g>
<g>
</g>
<g>
</g>
<g>
</g>
</svg>
